<?xml version="1.0" encoding="UTF-8" standalone="no"?>
<!-- Created with Inkscape (http://www.inkscape.org/) -->

<svg
   width="1200mm"
   height="675mm"
   viewBox="0 0 1200 675"
   version="1.1"
   id="svg1"
   inkscape:version="1.3.2 (091e20e, 2023-11-25, custom)"
   sodipodi:docname="hamstore-social-card.svg"
   xmlns:inkscape="http://www.inkscape.org/namespaces/inkscape"
   xmlns:sodipodi="http://sodipodi.sourceforge.net/DTD/sodipodi-0.dtd"
   xmlns="http://www.w3.org/2000/svg"
   xmlns:svg="http://www.w3.org/2000/svg">
  <sodipodi:namedview
     id="namedview1"
     pagecolor="#505050"
     bordercolor="#eeeeee"
     borderopacity="1"
     inkscape:showpageshadow="0"
     inkscape:pageopacity="0"
     inkscape:pagecheckerboard="0"
     inkscape:deskcolor="#505050"
     inkscape:document-units="mm"
     inkscape:zoom="0.25634295"
     inkscape:cx="-1917.3533"
     inkscape:cy="1000.6127"
     inkscape:window-width="5120"
     inkscape:window-height="1369"
     inkscape:window-x="-8"
     inkscape:window-y="-8"
     inkscape:window-maximized="1"
     inkscape:current-layer="layer1" />
  <defs
     id="defs1" />
  <g
     inkscape:label="Layer 1"
     inkscape:groupmode="layer"
     id="layer1">
    <rect
       style="font-variation-settings:'wght' 700;fill:#ebf1ea;stroke-width:0.566739"
       id="rect1"
       width="1200"
       height="675"
       x="0"
       y="0"
       sodipodi:insensitive="true" />
    <g
       transform="matrix(0.21238119,0,0,0.21238119,64.733613,47.722683)"
       id="g48">
      <path
         d="m 1017.4,45.5076 c 142.75,-1.683 284.08,28.384 413.79,88.0264 228.98,106.372 419.74,307.207 506.91,544.949 79.7,211.863 83.32,444.837 10.23,659.067 -12,34.52 -26.38,71.58 -43.26,104.03 -5.01,9.63 -10.23,18.73 -14.8,28.61 7.69,2.57 21.16,5.14 26.56,10.38 7.61,18.18 -49.48,55.58 -62.41,63.1 -30.91,51.24 -79.49,112.07 -120.45,155.33 -160.11,168.89 -375.15,275.22 -606.57,299.92 -30.66,3.35 -57.97,4.28 -88.65,5.14 -82.673,1.6 -171.012,-6.65 -251.01,-28.08 -67.643,20.06 -60.191,32.82 -94.895,-29.52 -30.399,-9.16 -51.339,-19.36 -80.135,-32.82 C 511.938,1867.21 420.033,1803.56 341.128,1725.55 154.904,1541.56 49.422,1291.1 47.8953,1029.32 47.3221,768.09 149.84,517.187 333.181,331.108 514.468,149.108 760.515,46.405 1017.4,45.5076 Z"
         fill="#1f2120"
         id="path1" />
      <path
         d="m 1017.24,136.457 c 13.15,-0.654 35.75,0.973 49.61,1.755 77.4,3.906 153.96,17.934 227.73,41.728 223.86,73.436 409.35,232.845 515.61,443.118 79.21,154.346 111.47,328.516 92.8,500.992 -3.57,31.51 -10.96,78.24 -20.62,108.55 -17.75,-13.34 -34.39,-35.46 -48.99,-52.34 -7.9,-9.12 -15.28,-19.93 -25.4,-26.4 -9,1.95 -29.62,11.86 -39.17,15.89 -24.54,10.37 -48.06,20.82 -73.15,29.97 -10.25,3.8 -20.64,7.21 -31.14,10.22 -9.59,2.77 -31.23,7.02 -38.21,11.67 -2.6,4.31 -1.12,10.71 1.77,14.56 11.3,13.52 22.52,31.05 34.04,43.93 15.71,17.57 38.19,56.16 55.54,68.42 7.49,1.5 19.57,-2.25 27.06,-4.09 46.57,-11.46 81.34,-29.53 121.98,-53.77 -9.67,34.04 -40.48,112.09 -60.82,138.81 -12.76,-4.99 -23.11,-15.72 -33.84,-18.33 -8.13,2.71 -41.07,26.47 -52.08,33.39 -24.12,15.48 -49.16,29.47 -74.99,41.9 -8.69,4.23 -27.5,9.15 -32.58,17.12 -1.49,2.34 -1.71,4.81 -1.03,7.49 3.27,12.84 87.01,63.4 100.95,71.83 -13.45,16.61 -51.53,61.65 -68.71,73.81 -25.13,-12.61 -55.18,-35.04 -79.5,-50.06 -10.41,-6.43 -23.03,-16.31 -34.04,-20.94 -8.8,2.58 -23.11,10.42 -31.73,14.75 -11.46,5.81 -23.1,11.25 -34.9,16.32 -13.68,5.95 -63.86,22.7 -70.28,28.09 -2.13,1.79 -3.02,3.95 -3.03,6.73 -0.08,20.59 88.15,104.28 106.19,121.15 -42.52,28.37 -74.56,43.97 -121.81,64.28 -11.7,5.12 -30.99,13.72 -42.72,17.18 9.87,-15.44 21.72,-29.35 31.61,-44.76 5.52,-8.59 6.25,-18.7 -4.61,-23.17 -10.03,-4.13 -21.45,-6.07 -31.44,-10.07 -30.24,-12.1 -63.01,-22.61 -91.74,-37.85 -18.41,8.06 -152.77,104.83 -158.1,116.24 -1.41,3.01 -1.55,7 -0.34,10.08 1.1,2.79 2.39,3.98 4.88,5.53 7.43,4.63 17.08,7.27 25.3,10.3 14.91,5.38 29.72,11.03 44.43,16.94 -71.1,12.7 -175.253,13.89 -245.972,1.65 -20.031,-20.98 -40.275,-41.76 -60.727,-62.34 -5.233,-5.28 -31.91,-34.16 -37.367,-32.08 -37.343,14.22 -73.445,28.74 -112.494,38.13 -24.708,-11.41 -49.495,-18.59 -76.021,-32.03 -79.675,-40.36 -142.552,-84.28 -207.087,-145.4 -35.726,-34.03 -68.174,-71.34 -96.916,-111.44 C 206.371,1405.6 145.559,1227.54 140.923,1043.65 137.212,806.861 227.087,578.171 391.022,407.266 510.443,280.408 665.533,192.756 835.811,155.883 895.58,143.96 956.304,137.459 1017.24,136.457 Z"
         fill="#77b093"
         id="path2" />
      <path
         d="m 786.342,444.472 c -4.027,-41.178 -8.833,-66.052 12.069,-106.725 10.801,-20.136 29.104,-37.125 51.441,-43.108 84.057,-22.513 170.758,61.94 191.918,136.311 18.82,4.817 64.66,22.849 80.85,32.699 29.49,17.951 14.33,27.674 17.2,30.713 9.33,9.904 24.73,19.64 35.46,29.661 42.82,39.993 96.93,101.57 110.38,159.252 16.73,71.812 -12.27,136.225 -49.13,195.875 6.08,2.93 7.63,3.421 10.72,9.421 13.7,-17.654 38.72,-55.114 60.58,-60.984 15.19,-4.08 39.53,-7.494 55.78,-9.284 46.02,-5.069 97.7,-16.546 143.8,-15.091 18.19,-38.893 48.79,-84.767 70.35,-122.591 10.83,-19.188 21.3,-38.57 31.43,-58.138 5.06,-9.796 21.63,-46.68 30.99,-49.011 l 1.69,1.172 c 7.69,26.111 -66.33,172.928 -79.09,204.82 -3.88,9.692 -15.97,30.225 -20.48,41.567 l -0.44,1.151 c 11.53,7.841 22.95,15.857 34.24,24.043 24.06,17.756 47.2,33.688 36.82,66.498 -11.54,36.449 -28.15,70.214 -42.74,105.507 -6.08,14.73 -12.62,29.11 -22.33,41.8 1.82,3.6 3.45,7.29 4.87,11.06 9,23.92 9.7,47.21 -5.17,65.34 -2.42,2.95 -2.74,14 -7.92,16.91 -3.87,2.17 -7.8,3.42 -11.69,4.78 -8,16.99 -12.11,20.75 -31.07,22.84 -7,9.78 -42.08,59.49 -51.38,62.68 -24.63,8.45 -57.85,14.94 -83.73,21.55 -19.66,5.05 -39.29,10.24 -58.88,15.56 -11.14,3 -27.17,7.71 -38.16,8.91 -22.48,2.46 -56.85,-22.75 -73.29,-37.25 4.2,8.35 8.49,16.86 12.28,25.4 27.47,61.85 31.65,133.87 7.33,197.41 -5.68,14.82 -13.49,28.53 -21.27,42.4 55.56,7.55 130.36,25.76 154.15,82.8 14.79,41.12 -47.83,51.89 -75.3,54.36 -81.96,7.33 -165.23,-9.66 -244,-31.09 -16.08,-4.37 -17.75,-9.61 -36.473,-10.04 -16.425,-0.38 -37.222,-2.96 -53.446,-5.97 -5.797,5.93 -18.536,15.07 -25.588,20.55 43.753,16.55 87.332,38.42 114.827,77.77 34.7,49.65 -40.479,63.16 -73.637,64.98 -83.524,4.57 -163.779,-27.8 -234.438,-69.59 -12.873,-7.62 -25.158,-16.74 -37.339,-25.41 -5.955,-3.54 -14.241,-12.32 -20.333,-15.06 -35.173,-15.79 -70.908,-29.91 -102.532,-52.55 -9.294,-6.65 -20.86,-16.24 -31.283,-20.45 -6.339,-2.56 -17.667,-4.2 -24.792,-5.8 -60.331,-14.14 -112.532,-51.76 -145.038,-104.52 -59.037,-94.71 -37.509,-250.55 61.035,-311.42 3.784,-12.65 6.863,-29.48 9.896,-42.8 5.218,-22.58 11.053,-45.02 17.498,-67.28 C 484.316,917.694 548.86,775.939 632.247,657.636 593.811,654.22 563.684,642.94 538.42,613.496 451.162,511.532 527.78,355.636 663.959,369.999 c 60.623,6.394 84.65,29.766 122.383,74.473 z"
         fill="#1f2120"
         id="path3" />
      <path
         d="m 1236.53,879.15 c 6.08,2.93 7.63,3.421 10.72,9.421 -2.94,4.902 -6.81,10.333 -10.17,15.067 -25.5,35.981 -47.4,73.232 -69.37,111.382 -10.63,-4.1 -31.79,-8.12 -43.7,-10.66 10.1,-9.806 22.09,-19.309 32.26,-29.484 25.71,-25.727 61.88,-65.156 80.26,-95.726 z"
         fill="#e3fae5"
         id="path4" />
      <path
         d="m 642.572,395.431 c 17.583,-1.965 41.598,3.082 58.023,9.424 48.599,18.765 78.414,68.201 98.6,113.626 5.607,-7.853 -2.055,-42.213 -5.17,-51.775 19.032,-5.563 39.112,-9.793 58.175,-14.483 77.821,-19.149 120.151,-20.838 196.8,4.456 -51.599,32.754 40.44,40.951 58.07,42.423 11.39,10.591 33.69,23.166 45.61,34.134 31.93,30.237 73.29,74.742 94.7,113.081 73.91,132.397 -70.87,290.396 -168.65,365.233 -6.05,4.63 -20.58,11.5 -22.57,18 l 1.73,1.42 c 12.7,1.82 30.46,-5.83 41.59,-11.57 21.68,5.72 35.87,11.03 58.6,14.98 -3.45,9.11 -11.8,21.79 -16.4,32.19 -18.5,-0.05 -37.46,2.5 -56.01,2.49 -50.63,-0.04 -92.288,-9.24 -138.749,-28.05 17.526,21.42 40.43,35.19 67.519,43.23 56.12,16.65 128.39,19.64 184.72,2.12 21.89,-6.8 39.59,-18.59 59.65,-28.7 15.96,-8.05 38.02,-16.44 55.99,-10.83 2.56,0.79 2.29,0.9 3.03,2.62 -2.55,1.87 -11.05,4.54 -14.32,5.71 -18.22,6.52 -27.3,11.32 -40.29,25.13 15.41,-3.83 30.44,-9.27 45.68,-13.52 12.16,-3.4 41.44,-12.85 51.03,-2.09 l -0.31,2.18 c -8.86,8.54 -80.74,21.35 -99.88,29.13 9.11,2.24 16.73,3.55 26.24,3.27 10.81,-0.31 64.69,-13.69 69.16,-3.05 -5.84,9.12 -61.54,18.23 -75.86,21.75 17.32,3.76 33.28,2.92 50.73,2.36 4.25,-0.14 7.5,-0.72 9.98,1.72 l -0.53,2.36 c -10.32,11.1 -64.35,5.92 -75.1,12 l -0.05,1.5 c 10.59,8.66 34.35,5.18 47.9,10.84 l 0.02,1.18 c -11.65,4.62 -45.1,2.25 -59.75,2.25 -8.16,5.19 -29,23.61 -38.21,30.96 -37.52,30.87 -76.35,58.15 -121.28,77 -70.38,29.52 -153.969,18.88 -223.134,-11.12 44.509,40.84 90.637,52.33 148.764,54.05 51.72,-2.57 101.18,-23.1 141.93,-54.52 32.11,41.03 47.34,121.53 39.18,172.14 -20.11,124.59 -133.13,184.55 -250.705,167.16 28.613,-34.06 34.763,-66.94 37.253,-109.27 -23.276,85.6 -85.292,139.31 -170.787,160.29 -87.721,21.52 -162,0.43 -236.923,-46.15 -70.369,-43.34 -120.413,-113.1 -138.924,-193.64 -17.87,-76.79 -10.023,-147.46 4.079,-223.66 28.398,-153.45 89.524,-298.819 162.854,-435.867 13.616,-25.447 28.374,-54.138 43.593,-78.663 11.609,0.207 56.783,0.993 63.11,-9.442 -1.125,-8.105 -16.093,-12.046 -16.368,-17.522 9.832,-3.202 25.558,9.491 34.606,2.324 5.608,-12.28 -12.967,-40.855 -14.616,-51.062 l 1.049,-1.359 c 12.413,-3.113 29.463,25.067 41.077,29.299 3.53,-0.664 1.913,0.049 4.799,-2.648 2.91,-7.653 0.954,-35.129 -0.702,-43.962 -11.682,-62.321 -82.328,-162.12 -156.35,-135.95 -46.852,16.564 -74.396,82.297 -64.345,129.357 2.033,9.519 6.136,19.53 9.731,28.799 -14.852,-19.04 -23.811,-42.008 -25.774,-66.075 -2.452,-32.811 8.193,-61.906 29.687,-86.65 23.622,-27.194 51.128,-38.107 86.498,-40.558 z"
         fill="#e3fae5"
         id="path5" />
      <path
         d="m 1208.61,683.29 c 16.66,-2.723 25.19,0.639 32.11,16.12 -1.23,19.501 -8.99,27.794 -27.42,33.666 0.65,36.575 -3.74,63.162 -29.61,92.923 -4.71,5.421 -16.59,11.534 -19.64,18.008 -14.44,30.748 -28.45,62.372 -51.04,88.227 -6.65,7.349 -18.86,16.132 -29.21,15.479 -40.03,-2.524 -39.7,-57.184 -39.01,-83.963 0.21,-14.278 3.02,-25.565 3.05,-39.081 0.01,-3.222 -4.3,-9.449 -6.44,-12.295 -10.18,-13.548 -11.04,-23.049 -11.16,-39.226 13.03,58.873 92.54,87.741 138.63,46.979 26.58,-23.503 33.01,-51.359 36.03,-85.407 -6.9,-1.564 -12.41,-3.142 -18.37,-6.897 -40.46,-25.491 -4.66,-39.941 22.08,-44.533 z"
         fill="#1f2120"
         id="path6" />
      <path
         d="m 1055.46,865.876 c 33.15,1.502 48.04,12.473 58.54,44.428 -3.71,4.229 -7.72,8.501 -11.53,12.668 -39.49,34.164 -44.97,-32.956 -47.01,-57.096 z"
         fill="#cf8877"
         id="path7" />
      <path
         d="m 1054.86,828.558 c 1.93,1.313 3.88,2.606 5.84,3.879 29.91,19.382 57.49,20.293 91.32,13.158 -4.86,10.542 -12.92,23.713 -18.82,33.941 -4.05,6.567 -8.38,14.948 -12.16,21.814 -11.34,-35.004 -31.31,-44.079 -66.11,-42.768 -0.39,-9.595 -0.12,-20.338 -0.07,-30.024 z"
         fill="#543b3b"
         id="path8" />
      <path
         d="m 1214.08,697.42 c 5.24,0.082 9.01,-0.217 13.18,2.81 3.18,5.774 0.47,9.512 -4.32,13.505 -7.95,6.643 -14.66,6.847 -24.45,6.037 -5.83,-2.283 -20.06,-6.282 -15.8,-14.689 7.19,-5.71 22.21,-6.698 31.39,-7.663 z"
         fill="#cf8877"
         id="path9" />
      <path
         d="m 935.785,599.553 c 13.312,1.99 21.696,5.281 32.811,12.9 23.631,16.452 39.744,41.629 44.794,69.978 5.44,29.764 0.23,61.419 -35.153,66.398 -14.578,1.055 -29.184,-6.043 -40.297,-15.068 -23.379,-18.934 -35.586,-46.165 -38.815,-75.736 -2.235,-20.469 0.007,-48.013 22.553,-56.63 3.738,-1.428 10.003,-1.588 14.107,-1.842 z"
         fill="#1f2120"
         id="path10" />
      <path
         d="m 924.362,619.837 c 23.234,0.162 29.303,39.434 8.055,54.151 -17.518,0.845 -22.209,-21.892 -20.164,-35.375 1.461,-9.637 4.335,-13.387 12.109,-18.776 z"
         fill="#ffffff"
         id="path11" />
      <path
         d="m 1110,537.899 c 51.52,-3.011 123.78,108.593 87.85,123.62 -31.04,-0.848 -58.23,-27.64 -75.68,-50.952 -12.37,-16.529 -36.28,-57.061 -12.17,-72.668 z"
         fill="#1f2120"
         id="path12" />
      <path
         d="m 1115.31,554.337 c 18.97,-0.795 36.63,23.275 24.58,39.242 -13.07,5.165 -20.4,-8.927 -24.44,-19.348 -2.99,-7.718 -3.83,-12.357 -0.14,-19.894 z"
         fill="#ffffff"
         id="path13" />
      <path
         d="m 900.523,506.264 c 10.115,0.048 26.154,3.709 22.747,16.12 -5.389,19.63 -32.805,36.874 -46.729,50.697 -12.893,12.799 -25.335,30.94 -38.796,40.505 -49.772,23.892 -8.254,-96.781 62.778,-107.322 z"
         fill="#1f2120"
         id="path14" />
      <path
         d="m 1001.72,797.481 1.53,-0.198 c -1.1,4.459 -35.868,14.832 -41.216,16.783 -79.972,29.174 -148.586,58.149 -219.553,105.253 l -1.764,0.599 c 1.688,-3.275 20.637,-19.173 24.701,-22.442 66.402,-53.407 151.81,-90.462 236.302,-99.995 z"
         fill="#1f2120"
         id="path15" />
      <path
         d="m 900.551,767.613 c 3.09,-1.066 46.581,-0.549 52.095,-0.428 14.238,0.313 43.652,2.261 56.654,7.194 -62.735,4.03 -115.501,5.431 -179.076,15.556 -31.54,5.319 -62.969,11.272 -94.268,17.855 37.498,-21.908 120.093,-38.022 164.595,-40.177 z"
         fill="#1f2120"
         id="path16" />
      <path
         d="m 987.506,830.292 c 0.498,4.061 -19.117,17.916 -22.517,20.398 -49.619,36.224 -99.16,75.399 -136.731,124.572 -3,-19.275 37.543,-62.737 51.13,-76.162 20.083,-19.844 46.057,-36.738 70.719,-50.376 13.34,-7.377 22.829,-13.605 37.399,-18.432 z"
         fill="#1f2120"
         id="path17" />
      <path
         d="m 1591.44,912.186 0.78,-0.02 c 0.18,0.394 0.35,0.787 0.53,1.18 -13.71,26.731 -50.3,113.324 -57.36,134.904 -32.64,-13.84 -59.48,29.95 -69.94,55.47 -4.06,9.88 -11.79,13.72 -10.73,27.71 1.29,16.94 5.56,36.24 18.14,48.9 -7.04,7.22 -29.86,36.79 -35.55,40.17 -21.6,12.82 -65.3,19.85 -90.59,27.51 -16.14,4.89 -34,9.52 -49.57,13.74 l -10.04,2.18 c 18.01,-40.39 42.13,-79.98 57.43,-122.35 12.57,-9.44 14.73,-10.55 17.25,-25.54 19.33,-8.24 15.69,-10.19 18.39,-29.3 1.36,-9.64 2.92,-12.89 2.48,-23.33 l -11.08,-6.32 c 8.17,-21.53 18.36,-43.03 28.14,-63.904 8.05,-17.189 16.29,-35.852 25.26,-52.479 14.55,-0.493 36.03,-4.67 50.93,-6.814 38.91,-5.599 77.29,-12.488 115.53,-21.707 z"
         fill="#166054"
         id="path18" />
      <path
         d="m 627.299,444.19 c 15.231,-0.954 26.898,4.514 39.765,12.215 41.03,24.557 68.16,76.339 79.018,121.642 -8.534,-8.102 -34.114,-25.022 -44.988,-9.513 -7.006,9.992 6.162,36.052 11.068,47.359 -1.684,-0.461 -3.378,-0.891 -5.078,-1.291 -10.326,-2.446 -18.341,-2.696 -27.489,2.903 -6.649,13.33 -3,16.459 6.915,25.231 -49.514,2.916 -108.959,-29.628 -122.04,-81.392 -6.212,-24.583 0.534,-63.597 14.781,-84.907 12.244,-18.312 26.098,-27.691 48.048,-32.247 z"
         fill="#cf8877"
         id="path19" />
      <path
         d="m 1307.47,850.697 c 25.68,14.047 81.06,57.641 100.19,79.098 -19.1,37.51 -37.53,80.985 -54.98,119.735 -4.07,-1.58 -7.97,-1.93 -11.51,-3.22 -6.59,-2.4 -14.83,-8.56 -20.9,-12.71 -14.6,-7.24 -35.83,-3.95 -50.04,2.91 -18.28,-17.55 -38.55,-32.9 -60.4,-45.738 6.74,-14.977 21.72,-37.518 30.65,-51.397 20.21,-31.402 41.19,-61.518 66.99,-88.678 z"
         fill="#166054"
         id="path20" />
      <path
         d="m 1307.1,910.355 c 61.93,2.951 62.3,88.209 4.35,99.305 -59.58,4.16 -66.2,-92.458 -4.35,-99.305 z"
         fill="#1f2120"
         id="path21" />
      <path
         d="m 1301.37,934.153 c 37.77,-0.402 40.31,40.624 11.39,53.252 -35.67,5.964 -41.13,-44.608 -11.39,-53.252 z"
         fill="#cf8877"
         id="path22" />
      <path
         d="m 869.103,315.321 c 27.194,-2.05 43.155,5.476 66.411,18.47 42.132,23.541 62.402,56.356 90.246,93.437 -29.99,-9.35 -50.98,-10.364 -81.47,-10.061 -47.659,3.138 -86.386,13.135 -131.688,28.687 -0.614,-2.822 -1.165,-5.657 -1.651,-8.504 -8.68,-49.868 -2.173,-112.221 58.152,-122.029 z"
         fill="#e3fae5"
         id="path23" />
      <path
         d="m 881.105,1643.15 c 18.546,2.51 32.874,10.35 49.371,18.25 33.261,15.92 63.444,35.11 83.234,67.36 -6.08,3.99 -10.38,5.73 -17.029,8.67 -9.68,-23.68 -30.886,-40.44 -52.665,-52.61 -7.289,-4.07 -29.602,-14.37 -37.233,-13.24 0.115,3.77 18.824,15.68 23.379,18.67 19.469,12.79 40.205,30.43 53.01,49.98 l 0.96,1.49 c -15.121,5.16 -19.375,5.4 -35.062,7.23 -11.766,-21.26 -25.916,-36.7 -46.19,-49.93 -6.106,-4.31 -30.621,-17.66 -36.491,-11.7 1.4,2.21 27.74,21.59 32.35,25.49 12.327,10.33 23.12,22.36 32.054,35.73 -1.464,-0.05 -2.928,-0.12 -4.39,-0.21 -72.074,-4.18 -140.148,-31.81 -202.905,-66.12 -5.168,-2.83 -12.825,-6.99 -16.655,-11.29 l 0.312,-0.94 c 0.464,0.14 0.928,0.28 1.392,0.42 46.882,5.79 93.987,2.94 138.697,-13.08 12.859,-4.61 23.199,-7.81 33.861,-14.17 z"
         fill="#e3fae5"
         id="path24" />
      <path
         d="m 407.985,1204.61 1.143,0.56 c 1.205,3.27 -4.244,29.74 -4.718,35.43 -9.763,116.98 4.06,211.57 77.415,306.7 -13.687,-4.64 -21.881,-8.48 -34.561,-15.47 -16.335,-9.57 -31.216,-21.44 -44.192,-35.23 -58.942,-61.42 -70.009,-160.77 -33.819,-236.49 8.959,-18.75 23.666,-41.16 38.732,-55.5 z"
         fill="#b8736b"
         id="path25" />
      <path
         d="m 1174.39,1536.94 c 15,-0.23 49.46,8.11 64.3,12.13 32.18,8.73 68.58,27.05 84.72,57.71 1.6,3.04 4.07,6.66 3.12,10.07 -0.64,0.12 -1.28,0.24 -1.93,0.37 -3.25,-3.3 -10.12,-10.22 -13.06,-13.02 -21.82,-20.78 -48.64,-36.58 -78.02,-43.5 7.18,5.82 17.66,12.11 25.47,17.53 21.28,14.79 37.24,26.6 52.92,47.43 -8.59,2.15 -19.86,3.93 -28.74,5.59 -7.71,-15.65 -16.92,-23.45 -29.56,-35.12 -15.73,-12.97 -27.49,-19.46 -47.05,-24.99 24,25.03 38.71,29.19 61.72,61.64 -54.3,1.94 -108.66,-1.92 -162.14,-11.52 -18.37,-3.37 -36.05,-8.68 -52.95,-11.84 l -1.12,-0.2 c 57.49,-13.95 82.11,-31.68 122.32,-72.28 z"
         fill="#e3fae5"
         id="path26" />
      <path
         d="m 1465.1,825.757 0.56,0.596 c -4.14,1.542 -7.02,3.033 -10.52,5.768 -34.77,27.157 0.96,57.039 31.86,59.616 14.23,1.187 23.76,0.017 35.19,-9.422 5.68,-18.147 2.82,-25.545 13.81,-43.884 21.95,25.535 38.6,33.6 61.63,54.512 -14.42,5.808 -53.82,11.81 -69.68,13.859 -27.36,4.485 -75.62,7.149 -98.66,14.207 -16.85,-18.598 -34.87,-33.851 -54.84,-49.028 -14.84,-11.281 -30.41,-18.596 -46.66,-27.352 43.8,-4.522 92.06,-13.445 137.31,-18.872 z"
         fill="#166054"
         id="path27" />
      <path
         d="m 1310.61,1163.08 1.46,0.11 0.3,1.72 c -14.56,33.82 -30.38,67.88 -46.55,100.92 -0.75,1.54 -8.12,4.77 -9.94,5.6 -9,-3.87 -16.66,-8.67 -24.66,-14.22 -6.96,-4.67 -10.19,-6.53 -17.73,-10.19 5.85,0.09 12.59,0.37 18.38,-0.02 32.63,-2.19 34.14,-52.55 32.16,-75.48 17.31,-1.41 30.06,-3.99 46.58,-8.44 z"
         fill="#166054"
         id="path28" />
      <path
         d="m 1569.2,720.735 0.96,1.602 c -11.92,23.596 -23.5,47.36 -34.75,71.285 -14.45,30.749 -20.95,47.046 -29.7,80.205 -43.98,3.871 -70.8,-36.953 -10.79,-37.011 -1.47,4.809 -6.71,14.129 -0.43,17.298 8.68,-3.001 44.73,-77.469 51.57,-90.51 7.64,-14.33 15.35,-28.62 23.14,-42.869 z"
         fill="#cf8877"
         id="path29" />
      <path
         d="m 1199.45,1007.73 c 5.96,0.52 11.82,5.04 16.81,8.34 -7.12,16.55 -20.25,32.98 -27.94,51.81 l -9.95,2.71 -14.93,2.89 c 7.83,-18.49 24.57,-49.72 36.01,-65.75 z"
         fill="#166054"
         id="path30" />
      <path
         d="m 1247.68,1178.74 c 0.75,4.52 0.87,12.18 0.31,16.83 -5.25,43.16 -17.25,39.21 -52.77,33.54 l -2.56,-0.55 c 0.19,-2.98 9.56,-8.47 12.7,-10.51 16.12,-10.52 29.92,-24.64 42.32,-39.31 z"
         fill="#166054"
         id="path31" />
      <path
         d="m 1498.74,1078.86 c 0.6,0.94 0.59,0.76 0.83,1.93 4.28,20.73 17.12,37.54 24.06,55.81 -4.73,5.09 -6.71,8.77 -13.95,6.66 -13.79,-10.95 -21.22,-27.49 -28.32,-43.36 5.52,-8.86 10.04,-13.84 17.38,-21.04 z"
         fill="#e3fae5"
         id="path32" />
      <path
         d="m 1519.77,1058.81 3.62,0.28 c 14,11.43 19.5,40.83 13.54,57.93 -0.73,2.08 -1.43,2.12 -3.2,2.59 l -1.64,-2.22 c -10.92,-17.17 -17.21,-28.84 -26.14,-47.3 5.03,-6.78 6.07,-7.99 13.82,-11.28 z"
         fill="#ffffff"
         id="path33" />
      <path
         d="m 1228.12,1023.38 28.41,19.99 c -7.6,4.15 -20.51,9.15 -28.81,12.65 -7.24,3.01 -14.55,5.87 -21.9,8.6 6.51,-11.16 18.01,-29.75 22.3,-41.24 z"
         fill="#166054"
         id="path34" />
      <path
         d="m 1475.77,1115.54 1.35,0.91 c 4.38,10.77 10.8,22.94 16.45,33.24 1.32,2.41 5.22,6.29 7.75,10.37 -0.75,2.21 -2.77,2.76 -5.32,4.37 -16.39,-1.85 -23.6,-23.78 -26.69,-37.57 2.25,-5.12 3.27,-6.68 6.46,-11.32 z"
         fill="#ffffff"
         id="path35" />
      <path
         d="m 1569.2,720.735 c 1.44,-3.511 3.77,-9.329 5.85,-12.326 l 2.03,-0.236 -1.12,-0.679 0.96,0.167 c -0.54,4.369 -4.3,10.996 -6.76,14.676 z"
         fill="#543b3b"
         id="path36" />
      <path
         d="m 1561.6,1313.98 c 6.87,2.81 27.3,16.95 34.28,21.67 21.18,14.31 41.73,27.82 64.09,40.42 6.42,4.05 21.96,9.01 24.64,16.18 2.68,7.17 -12.07,20.21 -16.87,24.72 -44.85,42.1 -110.1,74.92 -168.45,92.27 -10.77,2.65 -21.15,3.68 -30.13,-5 -31.38,-30.33 -60.97,-63.02 -87.85,-97.49 -11.78,-15.1 19.31,-18.43 27.04,-22.28 54,-17.42 104.32,-42.03 153.25,-70.49 z"
         fill="#1f2120"
         id="path37" />
      <path
         d="m 1561.21,1336.96 c 3.26,1.87 8.81,6.13 11.88,8.61 26.13,21.08 52.87,37.28 81.78,54.15 -8.93,7.44 -19.72,14.28 -29.2,21.02 -41.57,29.53 -83.55,48.02 -130.62,67.27 l -8.4,3.45 c -20.51,-24.57 -58.43,-62.82 -82.16,-84.68 50.01,-12.73 116.03,-38.54 156.72,-69.82 z"
         fill="#cf8877"
         id="path38" />
      <path
         d="m 1420.51,612.411 c 18.1,-1.226 48.25,0.371 66.36,4.149 -12.77,1.828 -27.09,1.645 -40.12,3.616 -35.42,5.359 -73.05,11.339 -107.79,19.946 -7.35,1.747 -48.63,12.123 -51.35,9.413 2.73,-4.166 13.13,-9.002 17.81,-11.036 36.26,-15.731 75.78,-23.501 115.09,-26.088 z"
         fill="#1f2120"
         id="path39" />
      <path
         d="m 1440.4,548.399 c 6.15,-0.613 12.33,-0.399 18.52,-0.355 -5.14,1.828 -11.64,3.635 -16.99,5.115 -52.83,14.612 -99.2,39.224 -148.45,62.826 l -11.69,5.573 c 9.06,-15.158 24.52,-24.162 39.32,-33.065 37.04,-22.277 76.02,-36.51 119.29,-40.094 z"
         fill="#1f2120"
         id="path40" />
      <path
         d="m 1306.52,674.406 c 28.71,-0.615 59.96,1.897 87.47,10.141 -7.3,0.333 -11.58,0.13 -18.9,-0.382 -8.45,-0.117 -80.48,-1.915 -84.34,-5.514 l 0.54,-2.047 c 3.79,-2.575 9.87,-1.918 15.23,-2.198 z"
         fill="#1f2120"
         id="path41" />
      <path
         d="m 1013.35,73.5 c 214.31,-0.4133 404.95,59.325 576.92,186.582 123.68,91.523 235.87,228.062 297.47,369.062 104.92,234.38 111.17,501.116 17.32,740.146 -4.78,12.12 -34.63,84.15 -42.34,87.5 -9.83,-3.11 -32.12,-14.13 -41.54,-19.31 28.16,-49.88 47.1,-101.32 66.23,-154.85 2.94,-8.2 22.62,-19.56 19.19,-33.29 -0.77,-3.11 -7.43,-7.17 -9.71,-8.6 18.75,-63.25 28.17,-142.14 28.22,-207.42 0.31,-219.225 -77.96,-431.3 -220.61,-597.764 -17.48,-20.531 -36.61,-39.571 -55.65,-58.643 C 1518.46,246.335 1343.23,159.694 1161.39,131.233 1113.63,123.816 1065.33,120.348 1017,120.865 780.321,121.302 553.68,216.526 387.712,385.262 315.55,459.22 255.957,544.473 211.29,637.65 c -24.352,52.077 -43.025,106.415 -57.633,161.941 -54.0713,208.189 -32.066,428.829 62.056,622.239 71.809,150.65 185.462,277.45 327.387,365.26 38.5,23.89 84.456,48.25 127.289,63.24 l -0.507,0.6 c -12.353,-1.39 -12.761,0.9 -20.929,9.84 5.553,15.67 16.727,34.84 25.119,49.28 -19.304,-4.99 -42.029,-16.97 -60.076,-25.72 C 518.483,1838.21 431.351,1776.45 356.202,1701.6 229.935,1575.29 141.892,1415.9 102.204,1241.76 86.2484,1177.05 77.7932,1110.72 77.0048,1044.08 76.8635,1016.33 76.6573,984.535 78.6114,957.06 90.89,792.282 145.152,633.391 236.229,495.523 278.123,431.702 327.832,372.131 384.442,320.788 510.322,204.331 666.22,125.338 834.574,92.7088 901.693,79.4003 945.545,73.7464 1013.35,73.5 Z"
         fill="#166054"
         id="path42" />
      <path
         d="m 1799.2,1574.14 0.16,1.53 c -12.93,18.41 -29.68,38.17 -44.26,55.58 -93.03,112.23 -210.45,201.73 -343.32,261.69 -147.85,67.7 -308.75,94.12 -470.228,80.88 -27.685,-2.27 -84.01,-6.39 -109.91,-16.05 12.89,-4.48 24.229,-8.59 36.842,-13.76 11.646,-4.65 31.563,-12.12 42.835,-18.19 0.79,-0.43 3.954,-6.73 4.73,-8.27 2.855,-1.41 25.022,1.99 30.207,2.33 72.174,4.68 159.224,5.88 229.884,-11.9 24.22,8.76 59.76,23.19 84.98,27.47 14.65,-12.27 42.02,-46.05 54.92,-61.24 49.12,-9.48 107.28,-41.3 151.42,-64.71 13.95,-7.39 27.64,-17.8 41.98,-22.72 l 9.78,3.54 c 34.19,-14.68 146.25,-66.8 164.64,-95.29 2.01,-3.11 3.63,-7.14 2.26,-10.84 -3.25,-8.74 -19.36,-15.48 -27.19,-19.82 25.7,-24.51 45.28,-43.48 66.66,-72.99 3.73,1.96 7.43,3.5 11.29,5.17 18.46,-1.93 45.52,-13.51 62.32,-22.41 z"
         fill="#166054"
         id="path43" />
      <path
         d="m 1529.27,1607.11 c 17.62,12.23 34.74,26.75 52.55,39.14 24.62,17.12 48.2,29.48 75.05,42.36 -29.76,23.76 -87.29,54.19 -121.22,70.09 l -12.61,5.84 c -42.57,-35.8 -72.4,-71.6 -111.55,-109.42 48.53,-9.45 76.37,-21.85 117.78,-48.01 z"
         fill="#cf8877"
         id="path44" />
      <path
         d="m 1236.03,1760.92 c 1.92,0.39 33.47,16.26 38.21,18.39 21.12,9.61 42.71,18.18 64.68,25.66 -28.93,37.87 -55.5,69.77 -86.66,105.82 -11.94,-3.28 -21.59,-6.94 -33.01,-11.38 -38.14,-15.47 -76.24,-28.43 -113.67,-43.38 20.55,-17.78 41.65,-29.7 63.42,-45.48 22.58,-16.36 44.18,-33.47 67.03,-49.63 z"
         fill="#fbe6ae"
         id="path45" />
      <path
         d="m 1803.55,1177.85 c 3.14,0.56 31.73,40.64 37.3,46.59 12.58,13.43 23.58,21.89 38.17,32.77 -41.81,27.85 -100.88,56.11 -149.76,69.11 -2.15,-0.62 -2.96,-1.42 -4.38,-3.18 -18.47,-22.91 -35.76,-46.83 -55.56,-68.63 -5.52,-6.08 -10.95,-12.1 -15.92,-18.63 17.32,-5.61 35.43,-9.75 52.88,-15.55 35.51,-11.81 64.39,-25.34 97.27,-42.48 z"
         fill="#fbe6ae"
         id="path46" />
      <path
         d="m 1770.13,1432.73 c 22.05,13.39 44.79,25.63 68.11,36.66 15.94,7.37 33,13.88 48.48,21.49 -43.54,34.63 -79.8,57.07 -130.72,78.25 l -15.53,4.63 -99.53,-63.65 c 11.02,-5.46 24.61,-10.32 36.32,-15.92 33.78,-15.86 65.06,-36.57 92.87,-61.46 z"
         fill="#bde5cb"
         id="path47" />
      <path
         d="m 804.153,1828.9 1.522,-0.05 c 3.425,1.98 13.988,13.75 17.207,17.28 20.752,22.74 43.458,44.49 63.999,67.3 -44.29,14.82 -85.733,33.27 -132.113,48.28 -8.252,2.91 -15.3,5.53 -23.93,7.04 -19.283,-33.55 -37.747,-67.56 -55.375,-102.01 46.395,-5.66 85.917,-20.47 128.69,-37.84 z"
         fill="#bde5cb"
         id="path48" />
      <metadata
         id="metadata48">
        <recraft-signature>{&quot;signed_by&quot;: &quot;recraft&quot;, &quot;signature_b64&quot;: &quot;2o5mgHfVbxMPYAmZxdPrI88wXeSJCtzbFXt1J/iJ98Bi607lhcC4O65YjRJ8p7W28V4vT5BulczKTAR+g9+tBw==&quot;, &quot;signing_algo&quot;: &quot;Ed25519&quot;, &quot;generation_timestamp&quot;: 1773008983, &quot;identifier&quot;: &quot;33580a8f-5704-43c8-bed0-b56f0d8df1a6&quot;}</recraft-signature>
      </metadata>
    </g>
    <text
       xml:space="preserve"
       style="font-size:70.5556px;line-height:1.25;font-family:Gadugi;-inkscape-font-specification:Gadugi;stroke-width:2;fill:#166054;fill-opacity:1;stroke:#000000;stroke-opacity:1;paint-order:stroke markers fill;stroke-dasharray:none"
       x="159.56592"
       y="588.83447"
       id="text1"><tspan
         id="tspan1"
         style="font-style:normal;font-variant:normal;font-weight:normal;font-stretch:normal;font-size:70.5556px;font-family:'Sour Gummy';-inkscape-font-specification:'Sour Gummy';stroke-width:2;fill:#166054;fill-opacity:1;stroke:#000000;stroke-opacity:1;paint-order:stroke markers fill;stroke-dasharray:none"
         x="159.56592"
         y="588.83447"
         sodipodi:role="line">Making event sourcing easy</tspan></text>
    <text
       xml:space="preserve"
       style="font-style:normal;font-variant:normal;font-weight:bold;font-stretch:normal;font-size:98.7778px;line-height:1.25;font-family:'Plus Jakarta Sans';-inkscape-font-specification:'Plus Jakarta Sans Bold';stroke-width:2;fill:#166054;fill-opacity:1;stroke:#000000;stroke-opacity:1;stroke-dasharray:none;paint-order:stroke markers fill"
       x="545.1886"
       y="302.1756"
       id="text3"><tspan
         sodipodi:role="line"
         id="tspan3"
         style="font-style:normal;font-variant:normal;font-weight:bold;font-stretch:normal;font-size:98.7778px;font-family:'Plus Jakarta Sans';-inkscape-font-specification:'Plus Jakarta Sans Bold';stroke-width:2;fill:#166054;fill-opacity:1;stroke:#000000;stroke-opacity:1;stroke-dasharray:none;paint-order:stroke markers fill"
         x="545.1886"
         y="302.1756">HAMSTORE</tspan></text>
  </g>
</svg>
