<svg xmlns="http://www.w3.org/2000/svg" preserveAspectRatio="xMidYMid meet" version="1.1" viewBox="0 0 150 150">
<g transform="scale(0.0732421875)">
<path d="M 1017.4 45.5076 C 1160.15 43.8246 1301.48 73.8916 1431.19 133.534 C 1660.17 239.906 1850.93 440.741 1938.1 678.483 C 2017.8 890.346 2021.42 1123.32 1948.33 1337.55 C 1936.33 1372.07 1921.95 1409.13 1905.07 1441.58 C 1900.06 1451.21 1894.84 1460.31 1890.27 1470.19 C 1897.96 1472.76 1911.43 1475.33 1916.83 1480.57 C 1924.44 1498.75 1867.35 1536.15 1854.42 1543.67 C 1823.51 1594.91 1774.93 1655.74 1733.97 1699 C 1573.86 1867.89 1358.82 1974.22 1127.4 1998.92 C 1096.74 2002.27 1069.43 2003.2 1038.75 2004.06 C 956.077 2005.66 867.738 1997.41 787.74 1975.98 C 720.097 1996.04 727.549 2008.8 692.845 1946.46 C 662.446 1937.3 641.506 1927.1 612.71 1913.64 C 511.938 1867.21 420.033 1803.56 341.128 1725.55 C 154.904 1541.56 49.422 1291.1 47.8953 1029.32 C 47.3221 768.09 149.84 517.187 333.181 331.108 C 514.468 149.108 760.515 46.405 1017.4 45.5076 z" fill="rgb(31,33,32)" transform="translate(0,0)"></path>
<path d="M 1017.24 136.457 C 1030.39 135.803 1052.99 137.43 1066.85 138.212 C 1144.25 142.118 1220.81 156.146 1294.58 179.94 C 1518.44 253.376 1703.93 412.785 1810.19 623.058 C 1889.4 777.404 1921.66 951.574 1902.99 1124.05 C 1899.42 1155.56 1892.03 1202.29 1882.37 1232.6 C 1864.62 1219.26 1847.98 1197.14 1833.38 1180.26 C 1825.48 1171.14 1818.1 1160.33 1807.98 1153.86 C 1798.98 1155.81 1778.36 1165.72 1768.81 1169.75 C 1744.27 1180.12 1720.75 1190.57 1695.66 1199.72 C 1685.41 1203.52 1675.02 1206.93 1664.52 1209.94 C 1654.93 1212.71 1633.29 1216.96 1626.31 1221.61 C 1623.71 1225.92 1625.19 1232.32 1628.08 1236.17 C 1639.38 1249.69 1650.6 1267.22 1662.12 1280.1 C 1677.83 1297.67 1700.31 1336.26 1717.66 1348.52 C 1725.15 1350.02 1737.23 1346.27 1744.72 1344.43 C 1791.29 1332.97 1826.06 1314.9 1866.7 1290.66 C 1857.03 1324.7 1826.22 1402.75 1805.88 1429.47 C 1793.12 1424.48 1782.77 1413.75 1772.04 1411.14 C 1763.91 1413.85 1730.97 1437.61 1719.96 1444.53 C 1695.84 1460.01 1670.8 1474 1644.97 1486.43 C 1636.28 1490.66 1617.47 1495.58 1612.39 1503.55 C 1610.9 1505.89 1610.68 1508.36 1611.36 1511.04 C 1614.63 1523.88 1698.37 1574.44 1712.31 1582.87 C 1698.86 1599.48 1660.78 1644.52 1643.6 1656.68 C 1618.47 1644.07 1588.42 1621.64 1564.1 1606.62 C 1553.69 1600.19 1541.07 1590.31 1530.06 1585.68 C 1521.26 1588.26 1506.95 1596.1 1498.33 1600.43 C 1486.87 1606.24 1475.23 1611.68 1463.43 1616.75 C 1449.75 1622.7 1399.57 1639.45 1393.15 1644.84 C 1391.02 1646.63 1390.13 1648.79 1390.12 1651.57 C 1390.04 1672.16 1478.27 1755.85 1496.31 1772.72 C 1453.79 1801.09 1421.75 1816.69 1374.5 1837 C 1362.8 1842.12 1343.51 1850.72 1331.78 1854.18 C 1341.65 1838.74 1353.5 1824.83 1363.39 1809.42 C 1368.91 1800.83 1369.64 1790.72 1358.78 1786.25 C 1348.75 1782.12 1337.33 1780.18 1327.34 1776.18 C 1297.1 1764.08 1264.33 1753.57 1235.6 1738.33 C 1217.19 1746.39 1082.83 1843.16 1077.5 1854.57 C 1076.09 1857.58 1075.95 1861.57 1077.16 1864.65 C 1078.26 1867.44 1079.55 1868.63 1082.04 1870.18 C 1089.47 1874.81 1099.12 1877.45 1107.34 1880.48 C 1122.25 1885.86 1137.06 1891.51 1151.77 1897.42 C 1080.67 1910.12 976.517 1911.31 905.798 1899.07 C 885.767 1878.09 865.523 1857.31 845.071 1836.73 C 839.838 1831.45 813.161 1802.57 807.704 1804.65 C 770.361 1818.87 734.259 1833.39 695.21 1842.78 C 670.502 1831.37 645.715 1824.19 619.189 1810.75 C 539.514 1770.39 476.637 1726.47 412.102 1665.35 C 376.376 1631.32 343.928 1594.01 315.186 1553.91 C 206.371 1405.6 145.559 1227.54 140.923 1043.65 C 137.212 806.861 227.087 578.171 391.022 407.266 C 510.443 280.408 665.533 192.756 835.811 155.883 C 895.58 143.96 956.304 137.459 1017.24 136.457 z" fill="rgb(119,176,147)" transform="translate(0,0)"></path>
<path d="M 786.342 444.472 C 782.315 403.294 777.509 378.42 798.411 337.747 C 809.212 317.611 827.515 300.622 849.852 294.639 C 933.909 272.126 1020.61 356.579 1041.77 430.95 C 1060.59 435.767 1106.43 453.799 1122.62 463.649 C 1152.11 481.6 1136.95 491.323 1139.82 494.362 C 1149.15 504.266 1164.55 514.002 1175.28 524.023 C 1218.1 564.016 1272.21 625.593 1285.66 683.275 C 1302.39 755.087 1273.39 819.5 1236.53 879.15 C 1242.61 882.08 1244.16 882.571 1247.25 888.571 C 1260.95 870.917 1285.97 833.457 1307.83 827.587 C 1323.02 823.507 1347.36 820.093 1363.61 818.303 C 1409.63 813.234 1461.31 801.757 1507.41 803.212 C 1525.6 764.319 1556.2 718.445 1577.76 680.621 C 1588.59 661.433 1599.06 642.051 1609.19 622.483 C 1614.25 612.687 1630.82 575.803 1640.18 573.472 L 1641.87 574.644 C 1649.56 600.755 1575.54 747.572 1562.78 779.464 C 1558.9 789.156 1546.81 809.689 1542.3 821.031 L 1541.86 822.182 C 1553.39 830.023 1564.81 838.039 1576.1 846.225 C 1600.16 863.981 1623.3 879.913 1612.92 912.723 C 1601.38 949.172 1584.77 982.937 1570.18 1018.23 C 1564.1 1032.96 1557.56 1047.34 1547.85 1060.03 C 1549.67 1063.63 1551.3 1067.32 1552.72 1071.09 C 1561.72 1095.01 1562.42 1118.3 1547.55 1136.43 C 1545.13 1139.38 1544.81 1150.43 1539.63 1153.34 C 1535.76 1155.51 1531.83 1156.76 1527.94 1158.12 C 1519.94 1175.11 1515.83 1178.87 1496.87 1180.96 C 1489.87 1190.74 1454.79 1240.45 1445.49 1243.64 C 1420.86 1252.09 1387.64 1258.58 1361.76 1265.19 C 1342.1 1270.24 1322.47 1275.43 1302.88 1280.75 C 1291.74 1283.75 1275.71 1288.46 1264.72 1289.66 C 1242.24 1292.12 1207.87 1266.91 1191.43 1252.41 C 1195.63 1260.76 1199.92 1269.27 1203.71 1277.81 C 1231.18 1339.66 1235.36 1411.68 1211.04 1475.22 C 1205.36 1490.04 1197.55 1503.75 1189.77 1517.62 C 1245.33 1525.17 1320.13 1543.38 1343.92 1600.42 C 1358.71 1641.54 1296.09 1652.31 1268.62 1654.78 C 1186.66 1662.11 1103.39 1645.12 1024.62 1623.69 C 1008.54 1619.32 1006.87 1614.08 988.147 1613.65 C 971.722 1613.27 950.925 1610.69 934.701 1607.68 C 928.904 1613.61 916.165 1622.75 909.113 1628.23 C 952.866 1644.78 996.445 1666.65 1023.94 1706 C 1058.64 1755.65 983.461 1769.16 950.303 1770.98 C 866.779 1775.55 786.524 1743.18 715.865 1701.39 C 702.992 1693.77 690.707 1684.65 678.526 1675.98 C 672.571 1672.44 664.285 1663.66 658.193 1660.92 C 623.02 1645.13 587.285 1631.01 555.661 1608.37 C 546.367 1601.72 534.801 1592.13 524.378 1587.92 C 518.039 1585.36 506.711 1583.72 499.586 1582.12 C 439.255 1567.98 387.054 1530.36 354.548 1477.6 C 295.511 1382.89 317.039 1227.05 415.583 1166.18 C 419.367 1153.53 422.446 1136.7 425.479 1123.38 C 430.697 1100.8 436.532 1078.36 442.977 1056.1 C 484.316 917.694 548.86 775.939 632.247 657.636 C 593.811 654.22 563.684 642.94 538.42 613.496 C 451.162 511.532 527.78 355.636 663.959 369.999 C 724.582 376.393 748.609 399.765 786.342 444.472 z" fill="rgb(31,33,32)" transform="translate(0,0)"></path>
<path d="M 1236.53 879.15 C 1242.61 882.08 1244.16 882.571 1247.25 888.571 C 1244.31 893.473 1240.44 898.904 1237.08 903.638 C 1211.58 939.619 1189.68 976.87 1167.71 1015.02 C 1157.08 1010.92 1135.92 1006.9 1124.01 1004.36 C 1134.11 994.554 1146.1 985.051 1156.27 974.876 C 1181.98 949.149 1218.15 909.72 1236.53 879.15 z" fill="rgb(227,250,229)" transform="translate(0,0)"></path>
<path d="M 642.572 395.431 C 660.155 393.466 684.17 398.513 700.595 404.855 C 749.194 423.62 779.009 473.056 799.195 518.481 C 804.802 510.628 797.14 476.268 794.025 466.706 C 813.057 461.143 833.137 456.913 852.2 452.223 C 930.021 433.074 972.351 431.385 1049 456.679 C 997.401 489.433 1089.44 497.63 1107.07 499.102 C 1118.46 509.693 1140.76 522.268 1152.68 533.236 C 1184.61 563.473 1225.97 607.978 1247.38 646.317 C 1321.29 778.714 1176.51 936.713 1078.73 1011.55 C 1072.68 1016.18 1058.15 1023.05 1056.16 1029.55 L 1057.89 1030.97 C 1070.59 1032.79 1088.35 1025.14 1099.48 1019.4 C 1121.16 1025.12 1135.35 1030.43 1158.08 1034.38 C 1154.63 1043.49 1146.28 1056.17 1141.68 1066.57 C 1123.18 1066.52 1104.22 1069.07 1085.67 1069.06 C 1035.04 1069.02 993.382 1059.82 946.921 1041.01 C 964.447 1062.43 987.351 1076.2 1014.44 1084.24 C 1070.56 1100.89 1142.83 1103.88 1199.16 1086.36 C 1221.05 1079.56 1238.75 1067.77 1258.81 1057.66 C 1274.77 1049.61 1296.83 1041.22 1314.8 1046.83 C 1317.36 1047.62 1317.09 1047.73 1317.83 1049.45 C 1315.28 1051.32 1306.78 1053.99 1303.51 1055.16 C 1285.29 1061.68 1276.21 1066.48 1263.22 1080.29 C 1278.63 1076.46 1293.66 1071.02 1308.9 1066.77 C 1321.06 1063.37 1350.34 1053.92 1359.93 1064.68 L 1359.62 1066.86 C 1350.76 1075.4 1278.88 1088.21 1259.74 1095.99 C 1268.85 1098.23 1276.47 1099.54 1285.98 1099.26 C 1296.79 1098.95 1350.67 1085.57 1355.14 1096.21 C 1349.3 1105.33 1293.6 1114.44 1279.28 1117.96 C 1296.6 1121.72 1312.56 1120.88 1330.01 1120.32 C 1334.26 1120.18 1337.51 1119.6 1339.99 1122.04 L 1339.46 1124.4 C 1329.14 1135.5 1275.11 1130.32 1264.36 1136.4 L 1264.31 1137.9 C 1274.9 1146.56 1298.66 1143.08 1312.21 1148.74 L 1312.23 1149.92 C 1300.58 1154.54 1267.13 1152.17 1252.48 1152.17 C 1244.32 1157.36 1223.48 1175.78 1214.27 1183.13 C 1176.75 1214 1137.92 1241.28 1092.99 1260.13 C 1022.61 1289.65 939.021 1279.01 869.856 1249.01 C 914.365 1289.85 960.493 1301.34 1018.62 1303.06 C 1070.34 1300.49 1119.8 1279.96 1160.55 1248.54 C 1192.66 1289.57 1207.89 1370.07 1199.73 1420.68 C 1179.62 1545.27 1066.6 1605.23 949.025 1587.84 C 977.638 1553.78 983.788 1520.9 986.278 1478.57 C 963.002 1564.17 900.986 1617.88 815.491 1638.86 C 727.77 1660.38 653.491 1639.29 578.568 1592.71 C 508.199 1549.37 458.155 1479.61 439.644 1399.07 C 421.774 1322.28 429.621 1251.61 443.723 1175.41 C 472.121 1021.96 533.247 876.591 606.577 739.543 C 620.193 714.096 634.951 685.405 650.17 660.88 C 661.779 661.087 706.953 661.873 713.28 651.438 C 712.155 643.333 697.187 639.392 696.912 633.916 C 706.744 630.714 722.47 643.407 731.518 636.24 C 737.126 623.96 718.551 595.385 716.902 585.178 L 717.951 583.819 C 730.364 580.706 747.414 608.886 759.028 613.118 C 762.558 612.454 760.941 613.167 763.827 610.47 C 766.737 602.817 764.781 575.341 763.125 566.508 C 751.443 504.187 680.797 404.388 606.775 430.558 C 559.923 447.122 532.379 512.855 542.43 559.915 C 544.463 569.434 548.566 579.445 552.161 588.714 C 537.309 569.674 528.35 546.706 526.387 522.639 C 523.935 489.828 534.58 460.733 556.074 435.989 C 579.696 408.795 607.202 397.882 642.572 395.431 z" fill="rgb(227,250,229)" transform="translate(0,0)"></path>
<path d="M 1208.61 683.29 C 1225.27 680.567 1233.8 683.929 1240.72 699.41 C 1239.49 718.911 1231.73 727.204 1213.3 733.076 C 1213.95 769.651 1209.56 796.238 1183.69 825.999 C 1178.98 831.42 1167.1 837.533 1164.05 844.007 C 1149.61 874.755 1135.6 906.379 1113.01 932.234 C 1106.36 939.583 1094.15 948.366 1083.8 947.713 C 1043.77 945.189 1044.1 890.529 1044.79 863.75 C 1045 849.472 1047.81 838.185 1047.84 824.669 C 1047.85 821.447 1043.54 815.22 1041.4 812.374 C 1031.22 798.826 1030.36 789.325 1030.24 773.148 C 1043.27 832.021 1122.78 860.889 1168.87 820.127 C 1195.45 796.624 1201.88 768.768 1204.9 734.72 C 1198 733.156 1192.49 731.578 1186.53 727.823 C 1146.07 702.332 1181.87 687.882 1208.61 683.29 z" fill="rgb(31,33,32)" transform="translate(0,0)"></path>
<path d="M 1055.46 865.876 C 1088.61 867.378 1103.5 878.349 1114 910.304 C 1110.29 914.533 1106.28 918.805 1102.47 922.972 C 1062.98 957.136 1057.5 890.016 1055.46 865.876 z" fill="rgb(207,136,119)" transform="translate(0,0)"></path>
<path d="M 1054.86 828.558 C 1056.79 829.871 1058.74 831.164 1060.7 832.437 C 1090.61 851.819 1118.19 852.73 1152.02 845.595 C 1147.16 856.137 1139.1 869.308 1133.2 879.536 C 1129.15 886.103 1124.82 894.484 1121.04 901.35 C 1109.7 866.346 1089.73 857.271 1054.93 858.582 C 1054.54 848.987 1054.81 838.244 1054.86 828.558 z" fill="rgb(84,59,59)" transform="translate(0,0)"></path>
<path d="M 1214.08 697.42 C 1219.32 697.502 1223.09 697.203 1227.26 700.23 C 1230.44 706.004 1227.73 709.742 1222.94 713.735 C 1214.99 720.378 1208.28 720.582 1198.49 719.772 C 1192.66 717.489 1178.43 713.49 1182.69 705.083 C 1189.88 699.373 1204.9 698.385 1214.08 697.42 z" fill="rgb(207,136,119)" transform="translate(0,0)"></path>
<path d="M 935.785 599.553 C 949.097 601.543 957.481 604.834 968.596 612.453 C 992.227 628.905 1008.34 654.082 1013.39 682.431 C 1018.83 712.195 1013.62 743.85 978.237 748.829 C 963.659 749.884 949.053 742.786 937.94 733.761 C 914.561 714.827 902.354 687.596 899.125 658.025 C 896.89 637.556 899.132 610.012 921.678 601.395 C 925.416 599.967 931.681 599.807 935.785 599.553 z" fill="rgb(31,33,32)" transform="translate(0,0)"></path>
<path d="M 924.362 619.837 C 947.596 619.999 953.665 659.271 932.417 673.988 C 914.899 674.833 910.208 652.096 912.253 638.613 C 913.714 628.976 916.588 625.226 924.362 619.837 z" fill="rgb(255,255,255)" transform="translate(0,0)"></path>
<path d="M 1110 537.899 C 1161.52 534.888 1233.78 646.492 1197.85 661.519 C 1166.81 660.671 1139.62 633.879 1122.17 610.567 C 1109.8 594.038 1085.89 553.506 1110 537.899 z" fill="rgb(31,33,32)" transform="translate(0,0)"></path>
<path d="M 1115.31 554.337 C 1134.28 553.542 1151.94 577.612 1139.89 593.579 C 1126.82 598.744 1119.49 584.652 1115.45 574.231 C 1112.46 566.513 1111.62 561.874 1115.31 554.337 z" fill="rgb(255,255,255)" transform="translate(0,0)"></path>
<path d="M 900.523 506.264 C 910.638 506.312 926.677 509.973 923.27 522.384 C 917.881 542.014 890.465 559.258 876.541 573.081 C 863.648 585.88 851.206 604.021 837.745 613.586 C 787.973 637.478 829.491 516.805 900.523 506.264 z" fill="rgb(31,33,32)" transform="translate(0,0)"></path>
<path d="M 1001.72 797.481 L 1003.25 797.283 C 1002.15 801.742 967.382 812.115 962.034 814.066 C 882.062 843.24 813.448 872.215 742.481 919.319 L 740.717 919.918 C 742.405 916.643 761.354 900.745 765.418 897.476 C 831.82 844.069 917.228 807.014 1001.72 797.481 z" fill="rgb(31,33,32)" transform="translate(0,0)"></path>
<path d="M 900.551 767.613 C 903.641 766.547 947.132 767.064 952.646 767.185 C 966.884 767.498 996.298 769.446 1009.3 774.379 C 946.565 778.409 893.799 779.81 830.224 789.935 C 798.684 795.254 767.255 801.207 735.956 807.79 C 773.454 785.882 856.049 769.768 900.551 767.613 z" fill="rgb(31,33,32)" transform="translate(0,0)"></path>
<path d="M 987.506 830.292 C 988.004 834.353 968.389 848.208 964.989 850.69 C 915.37 886.914 865.829 926.089 828.258 975.262 C 825.258 955.987 865.801 912.525 879.388 899.1 C 899.471 879.256 925.445 862.362 950.107 848.724 C 963.447 841.347 972.936 835.119 987.506 830.292 z" fill="rgb(31,33,32)" transform="translate(0,0)"></path>
<path d="M 1591.44 912.186 L 1592.22 912.166 C 1592.4 912.56 1592.57 912.953 1592.75 913.346 C 1579.04 940.077 1542.45 1026.67 1535.39 1048.25 C 1502.75 1034.41 1475.91 1078.2 1465.45 1103.72 C 1461.39 1113.6 1453.66 1117.44 1454.72 1131.43 C 1456.01 1148.37 1460.28 1167.67 1472.86 1180.33 C 1465.82 1187.55 1443 1217.12 1437.31 1220.5 C 1415.71 1233.32 1372.01 1240.35 1346.72 1248.01 C 1330.58 1252.9 1312.72 1257.53 1297.15 1261.75 L 1287.11 1263.93 C 1305.12 1223.54 1329.24 1183.95 1344.54 1141.58 C 1357.11 1132.14 1359.27 1131.03 1361.79 1116.04 C 1381.12 1107.8 1377.48 1105.85 1380.18 1086.74 C 1381.54 1077.1 1383.1 1073.85 1382.66 1063.41 L 1371.58 1057.09 C 1379.75 1035.56 1389.94 1014.06 1399.72 993.186 C 1407.77 975.997 1416.01 957.334 1424.98 940.707 C 1439.53 940.214 1461.01 936.037 1475.91 933.893 C 1514.82 928.294 1553.2 921.405 1591.44 912.186 z" fill="rgb(22,96,84)" transform="translate(0,0)"></path>
<path d="M 627.299 444.19 C 642.53 443.236 654.197 448.704 667.064 456.405 C 708.094 480.962 735.224 532.744 746.082 578.047 C 737.548 569.945 711.968 553.025 701.094 568.534 C 694.088 578.526 707.256 604.586 712.162 615.893 C 710.478 615.432 708.784 615.002 707.084 614.602 C 696.758 612.156 688.743 611.906 679.595 617.505 C 672.946 630.835 676.595 633.964 686.51 642.736 C 636.996 645.652 577.551 613.108 564.47 561.344 C 558.258 536.761 565.004 497.747 579.251 476.437 C 591.495 458.125 605.349 448.746 627.299 444.19 z" fill="rgb(207,136,119)" transform="translate(0,0)"></path>
<path d="M 1307.47 850.697 C 1333.15 864.744 1388.53 908.338 1407.66 929.795 C 1388.56 967.305 1370.13 1010.78 1352.68 1049.53 C 1348.61 1047.95 1344.71 1047.6 1341.17 1046.31 C 1334.58 1043.91 1326.34 1037.75 1320.27 1033.6 C 1305.67 1026.36 1284.44 1029.65 1270.23 1036.51 C 1251.95 1018.96 1231.68 1003.61 1209.83 990.772 C 1216.57 975.795 1231.55 953.254 1240.48 939.375 C 1260.69 907.973 1281.67 877.857 1307.47 850.697 z" fill="rgb(22,96,84)" transform="translate(0,0)"></path>
<path d="M 1307.1 910.355 C 1369.03 913.306 1369.4 998.564 1311.45 1009.66 C 1251.87 1013.82 1245.25 917.202 1307.1 910.355 z" fill="rgb(31,33,32)" transform="translate(0,0)"></path>
<path d="M 1301.37 934.153 C 1339.14 933.751 1341.68 974.777 1312.76 987.405 C 1277.09 993.369 1271.63 942.797 1301.37 934.153 z" fill="rgb(207,136,119)" transform="translate(0,0)"></path>
<path d="M 869.103 315.321 C 896.297 313.271 912.258 320.797 935.514 333.791 C 977.646 357.332 997.916 390.147 1025.76 427.228 C 995.77 417.878 974.78 416.864 944.29 417.167 C 896.631 420.305 857.904 430.302 812.602 445.854 C 811.988 443.032 811.437 440.197 810.951 437.35 C 802.271 387.482 808.778 325.129 869.103 315.321 z" fill="rgb(227,250,229)" transform="translate(0,0)"></path>
<path d="M 881.105 1643.15 C 899.651 1645.66 913.979 1653.5 930.476 1661.4 C 963.737 1677.32 993.92 1696.51 1013.71 1728.76 C 1007.63 1732.75 1003.33 1734.49 996.681 1737.43 C 987.001 1713.75 965.795 1696.99 944.016 1684.82 C 936.727 1680.75 914.414 1670.45 906.783 1671.58 C 906.898 1675.35 925.607 1687.26 930.162 1690.25 C 949.631 1703.04 970.367 1720.68 983.172 1740.23 L 984.132 1741.72 C 969.011 1746.88 964.757 1747.12 949.07 1748.95 C 937.304 1727.69 923.154 1712.25 902.88 1699.02 C 896.774 1694.71 872.259 1681.36 866.389 1687.32 C 867.789 1689.53 894.129 1708.91 898.739 1712.81 C 911.066 1723.14 921.859 1735.17 930.793 1748.54 C 929.329 1748.49 927.865 1748.42 926.403 1748.33 C 854.329 1744.15 786.255 1716.52 723.498 1682.21 C 718.33 1679.38 710.673 1675.22 706.843 1670.92 L 707.155 1669.98 C 707.619 1670.12 708.083 1670.26 708.547 1670.4 C 755.429 1676.19 802.534 1673.34 847.244 1657.32 C 860.103 1652.71 870.443 1649.51 881.105 1643.15 z" fill="rgb(227,250,229)" transform="translate(0,0)"></path>
<path d="M 407.985 1204.61 L 409.128 1205.17 C 410.333 1208.44 404.884 1234.91 404.41 1240.6 C 394.647 1357.58 408.47 1452.17 481.825 1547.3 C 468.138 1542.66 459.944 1538.82 447.264 1531.83 C 430.929 1522.26 416.048 1510.39 403.072 1496.6 C 344.13 1435.18 333.063 1335.83 369.253 1260.11 C 378.212 1241.36 392.919 1218.95 407.985 1204.61 z" fill="rgb(184,115,107)" transform="translate(0,0)"></path>
<path d="M 1174.39 1536.94 C 1189.39 1536.71 1223.85 1545.05 1238.69 1549.07 C 1270.87 1557.8 1307.27 1576.12 1323.41 1606.78 C 1325.01 1609.82 1327.48 1613.44 1326.53 1616.85 C 1325.89 1616.97 1325.25 1617.09 1324.6 1617.22 C 1321.35 1613.92 1314.48 1607 1311.54 1604.2 C 1289.72 1583.42 1262.9 1567.62 1233.52 1560.7 C 1240.7 1566.52 1251.18 1572.81 1258.99 1578.23 C 1280.27 1593.02 1296.23 1604.83 1311.91 1625.66 C 1303.32 1627.81 1292.05 1629.59 1283.17 1631.25 C 1275.46 1615.6 1266.25 1607.8 1253.61 1596.13 C 1237.88 1583.16 1226.12 1576.67 1206.56 1571.14 C 1230.56 1596.17 1245.27 1600.33 1268.28 1632.78 C 1213.98 1634.72 1159.62 1630.86 1106.14 1621.26 C 1087.77 1617.89 1070.09 1612.58 1053.19 1609.42 L 1052.07 1609.22 C 1109.56 1595.27 1134.18 1577.54 1174.39 1536.94 z" fill="rgb(227,250,229)" transform="translate(0,0)"></path>
<path d="M 1465.1 825.757 L 1465.66 826.353 C 1461.52 827.895 1458.64 829.386 1455.14 832.121 C 1420.37 859.278 1456.1 889.16 1487 891.737 C 1501.23 892.924 1510.76 891.754 1522.19 882.315 C 1527.87 864.168 1525.01 856.77 1536 838.431 C 1557.95 863.966 1574.6 872.031 1597.63 892.943 C 1583.21 898.751 1543.81 904.753 1527.95 906.802 C 1500.59 911.287 1452.33 913.951 1429.29 921.009 C 1412.44 902.411 1394.42 887.158 1374.45 871.981 C 1359.61 860.7 1344.04 853.385 1327.79 844.629 C 1371.59 840.107 1419.85 831.184 1465.1 825.757 z" fill="rgb(22,96,84)" transform="translate(0,0)"></path>
<path d="M 1310.61 1163.08 L 1312.07 1163.19 L 1312.37 1164.91 C 1297.81 1198.73 1281.99 1232.79 1265.82 1265.83 C 1265.07 1267.37 1257.7 1270.6 1255.88 1271.43 C 1246.88 1267.56 1239.22 1262.76 1231.22 1257.21 C 1224.26 1252.54 1221.03 1250.68 1213.49 1247.02 C 1219.34 1247.11 1226.08 1247.39 1231.87 1247 C 1264.5 1244.81 1266.01 1194.45 1264.03 1171.52 C 1281.34 1170.11 1294.09 1167.53 1310.61 1163.08 z" fill="rgb(22,96,84)" transform="translate(0,0)"></path>
<path d="M 1569.2 720.735 L 1570.16 722.337 C 1558.24 745.933 1546.66 769.697 1535.41 793.622 C 1520.96 824.371 1514.46 840.668 1505.71 873.827 C 1461.73 877.698 1434.91 836.874 1494.92 836.816 C 1493.45 841.625 1488.21 850.945 1494.49 854.114 C 1503.17 851.113 1539.22 776.645 1546.06 763.604 C 1553.7 749.274 1561.41 734.984 1569.2 720.735 z" fill="rgb(207,136,119)" transform="translate(0,0)"></path>
<path d="M 1199.45 1007.73 C 1205.41 1008.25 1211.27 1012.77 1216.26 1016.07 C 1209.14 1032.62 1196.01 1049.05 1188.32 1067.88 L 1178.37 1070.59 L 1163.44 1073.48 C 1171.27 1054.99 1188.01 1023.76 1199.45 1007.73 z" fill="rgb(22,96,84)" transform="translate(0,0)"></path>
<path d="M 1247.68 1178.74 C 1248.43 1183.26 1248.55 1190.92 1247.99 1195.57 C 1242.74 1238.73 1230.74 1234.78 1195.22 1229.11 L 1192.66 1228.56 C 1192.85 1225.58 1202.22 1220.09 1205.36 1218.05 C 1221.48 1207.53 1235.28 1193.41 1247.68 1178.74 z" fill="rgb(22,96,84)" transform="translate(0,0)"></path>
<path d="M 1498.74 1078.86 C 1499.34 1079.8 1499.33 1079.62 1499.57 1080.79 C 1503.85 1101.52 1516.69 1118.33 1523.63 1136.6 C 1518.9 1141.69 1516.92 1145.37 1509.68 1143.26 C 1495.89 1132.31 1488.46 1115.77 1481.36 1099.9 C 1486.88 1091.04 1491.4 1086.06 1498.74 1078.86 z" fill="rgb(227,250,229)" transform="translate(0,0)"></path>
<path d="M 1519.77 1058.81 L 1523.39 1059.09 C 1537.39 1070.52 1542.89 1099.92 1536.93 1117.02 C 1536.2 1119.1 1535.5 1119.14 1533.73 1119.61 L 1532.09 1117.39 C 1521.17 1100.22 1514.88 1088.55 1505.95 1070.09 C 1510.98 1063.31 1512.02 1062.1 1519.77 1058.81 z" fill="rgb(255,255,255)" transform="translate(0,0)"></path>
<path d="M 1228.12 1023.38 L 1256.53 1043.37 C 1248.93 1047.52 1236.02 1052.52 1227.72 1056.02 C 1220.48 1059.03 1213.17 1061.89 1205.82 1064.62 C 1212.33 1053.46 1223.83 1034.87 1228.12 1023.38 z" fill="rgb(22,96,84)" transform="translate(0,0)"></path>
<path d="M 1475.77 1115.54 L 1477.12 1116.45 C 1481.5 1127.22 1487.92 1139.39 1493.57 1149.69 C 1494.89 1152.1 1498.79 1155.98 1501.32 1160.06 C 1500.57 1162.27 1498.55 1162.82 1496 1164.43 C 1479.61 1162.58 1472.4 1140.65 1469.31 1126.86 C 1471.56 1121.74 1472.58 1120.18 1475.77 1115.54 z" fill="rgb(255,255,255)" transform="translate(0,0)"></path>
<path d="M 1569.2 720.735 C 1570.64 717.224 1572.97 711.406 1575.05 708.409 L 1577.08 708.173 L 1575.96 707.494 L 1576.92 707.661 C 1576.38 712.03 1572.62 718.657 1570.16 722.337 L 1569.2 720.735 z" fill="rgb(84,59,59)" transform="translate(0,0)"></path>
<path d="M 1561.6 1313.98 C 1568.47 1316.79 1588.9 1330.93 1595.88 1335.65 C 1617.06 1349.96 1637.61 1363.47 1659.97 1376.07 C 1666.39 1380.12 1681.93 1385.08 1684.61 1392.25 C 1687.29 1399.42 1672.54 1412.46 1667.74 1416.97 C 1622.89 1459.07 1557.64 1491.89 1499.29 1509.24 C 1488.52 1511.89 1478.14 1512.92 1469.16 1504.24 C 1437.78 1473.91 1408.19 1441.22 1381.31 1406.75 C 1369.53 1391.65 1400.62 1388.32 1408.35 1384.47 C 1462.35 1367.05 1512.67 1342.44 1561.6 1313.98 z" fill="rgb(31,33,32)" transform="translate(0,0)"></path>
<path d="M 1561.21 1336.96 C 1564.47 1338.83 1570.02 1343.09 1573.09 1345.57 C 1599.22 1366.65 1625.96 1382.85 1654.87 1399.72 C 1645.94 1407.16 1635.15 1414 1625.67 1420.74 C 1584.1 1450.27 1542.12 1468.76 1495.05 1488.01 L 1486.65 1491.46 C 1466.14 1466.89 1428.22 1428.64 1404.49 1406.78 C 1454.5 1394.05 1520.52 1368.24 1561.21 1336.96 z" fill="rgb(207,136,119)" transform="translate(0,0)"></path>
<path d="M 1420.51 612.411 C 1438.61 611.185 1468.76 612.782 1486.87 616.56 C 1474.1 618.388 1459.78 618.205 1446.75 620.176 C 1411.33 625.535 1373.7 631.515 1338.96 640.122 C 1331.61 641.869 1290.33 652.245 1287.61 649.535 C 1290.34 645.369 1300.74 640.533 1305.42 638.499 C 1341.68 622.768 1381.2 614.998 1420.51 612.411 z" fill="rgb(31,33,32)" transform="translate(0,0)"></path>
<path d="M 1440.4 548.399 C 1446.55 547.786 1452.73 548 1458.92 548.044 C 1453.78 549.872 1447.28 551.679 1441.93 553.159 C 1389.1 567.771 1342.73 592.383 1293.48 615.985 L 1281.79 621.558 C 1290.85 606.4 1306.31 597.396 1321.11 588.493 C 1358.15 566.216 1397.13 551.983 1440.4 548.399 z" fill="rgb(31,33,32)" transform="translate(0,0)"></path>
<path d="M 1306.52 674.406 C 1335.23 673.791 1366.48 676.303 1393.99 684.547 C 1386.69 684.88 1382.41 684.677 1375.09 684.165 C 1366.64 684.048 1294.61 682.25 1290.75 678.651 L 1291.29 676.604 C 1295.08 674.029 1301.16 674.686 1306.52 674.406 z" fill="rgb(31,33,32)" transform="translate(0,0)"></path>
<path d="M 1013.35 73.5 C 1227.66 73.0867 1418.3 132.825 1590.27 260.082 C 1713.95 351.605 1826.14 488.144 1887.74 629.144 C 1992.66 863.524 1998.91 1130.26 1905.06 1369.29 C 1900.28 1381.41 1870.43 1453.44 1862.72 1456.79 C 1852.89 1453.68 1830.6 1442.66 1821.18 1437.48 C 1849.34 1387.6 1868.28 1336.16 1887.41 1282.63 C 1890.35 1274.43 1910.03 1263.07 1906.6 1249.34 C 1905.83 1246.23 1899.17 1242.17 1896.89 1240.74 C 1915.64 1177.49 1925.06 1098.6 1925.11 1033.32 C 1925.42 814.095 1847.15 602.02 1704.5 435.556 C 1687.02 415.025 1667.89 395.985 1648.85 376.913 C 1518.46 246.335 1343.23 159.694 1161.39 131.233 C 1113.63 123.816 1065.33 120.348 1017 120.865 C 780.321 121.302 553.68 216.526 387.712 385.262 C 315.55 459.22 255.957 544.473 211.29 637.65 C 186.938 689.727 168.265 744.065 153.657 799.591 C 99.5857 1007.78 121.591 1228.42 215.713 1421.83 C 287.522 1572.48 401.175 1699.28 543.1 1787.09 C 581.6 1810.98 627.556 1835.34 670.389 1850.33 L 669.882 1850.93 C 657.529 1849.54 657.121 1851.83 648.953 1860.77 C 654.506 1876.44 665.68 1895.61 674.072 1910.05 C 654.768 1905.06 632.043 1893.08 613.996 1884.33 C 518.483 1838.21 431.351 1776.45 356.202 1701.6 C 229.935 1575.29 141.892 1415.9 102.204 1241.76 C 86.2484 1177.05 77.7932 1110.72 77.0048 1044.08 C 76.8635 1016.33 76.6573 984.535 78.6114 957.06 C 90.89 792.282 145.152 633.391 236.229 495.523 C 278.123 431.702 327.832 372.131 384.442 320.788 C 510.322 204.331 666.22 125.338 834.574 92.7088 C 901.693 79.4003 945.545 73.7464 1013.35 73.5 z" fill="rgb(22,96,84)" transform="translate(0,0)"></path>
<path d="M 1799.2 1574.14 L 1799.36 1575.67 C 1786.43 1594.08 1769.68 1613.84 1755.1 1631.25 C 1662.07 1743.48 1544.65 1832.98 1411.78 1892.94 C 1263.93 1960.64 1103.03 1987.06 941.552 1973.82 C 913.867 1971.55 857.542 1967.43 831.642 1957.77 C 844.532 1953.29 855.871 1949.18 868.484 1944.01 C 880.13 1939.36 900.047 1931.89 911.319 1925.82 C 912.109 1925.39 915.273 1919.09 916.049 1917.55 C 918.904 1916.14 941.071 1919.54 946.256 1919.88 C 1018.43 1924.56 1105.48 1925.76 1176.14 1907.98 C 1200.36 1916.74 1235.9 1931.17 1261.12 1935.45 C 1275.77 1923.18 1303.14 1889.4 1316.04 1874.21 C 1365.16 1864.73 1423.32 1832.91 1467.46 1809.5 C 1481.41 1802.11 1495.1 1791.7 1509.44 1786.78 L 1519.22 1790.32 C 1553.41 1775.64 1665.47 1723.52 1683.86 1695.03 C 1685.87 1691.92 1687.49 1687.89 1686.12 1684.19 C 1682.87 1675.45 1666.76 1668.71 1658.93 1664.37 C 1684.63 1639.86 1704.21 1620.89 1725.59 1591.38 C 1729.32 1593.34 1733.02 1594.88 1736.88 1596.55 C 1755.34 1594.62 1782.4 1583.04 1799.2 1574.14 z" fill="rgb(22,96,84)" transform="translate(0,0)"></path>
<path d="M 1529.27 1607.11 C 1546.89 1619.34 1564.01 1633.86 1581.82 1646.25 C 1606.44 1663.37 1630.02 1675.73 1656.87 1688.61 C 1627.11 1712.37 1569.58 1742.8 1535.65 1758.7 L 1523.04 1764.54 C 1480.47 1728.74 1450.64 1692.94 1411.49 1655.12 C 1460.02 1645.67 1487.86 1633.27 1529.27 1607.11 z" fill="rgb(207,136,119)" transform="translate(0,0)"></path>
<path d="M 1236.03 1760.92 C 1237.95 1761.31 1269.5 1777.18 1274.24 1779.31 C 1295.36 1788.92 1316.95 1797.49 1338.92 1804.97 C 1309.99 1842.84 1283.42 1874.74 1252.26 1910.79 C 1240.32 1907.51 1230.67 1903.85 1219.25 1899.41 C 1181.11 1883.94 1143.01 1870.98 1105.58 1856.03 C 1126.13 1838.25 1147.23 1826.33 1169 1810.55 C 1191.58 1794.19 1213.18 1777.08 1236.03 1760.92 z" fill="rgb(251,230,174)" transform="translate(0,0)"></path>
<path d="M 1803.55 1177.85 C 1806.69 1178.41 1835.28 1218.49 1840.85 1224.44 C 1853.43 1237.87 1864.43 1246.33 1879.02 1257.21 C 1837.21 1285.06 1778.14 1313.32 1729.26 1326.32 C 1727.11 1325.7 1726.3 1324.9 1724.88 1323.14 C 1706.41 1300.23 1689.12 1276.31 1669.32 1254.51 C 1663.8 1248.43 1658.37 1242.41 1653.4 1235.88 C 1670.72 1230.27 1688.83 1226.13 1706.28 1220.33 C 1741.79 1208.52 1770.67 1194.99 1803.55 1177.85 z" fill="rgb(251,230,174)" transform="translate(0,0)"></path>
<path d="M 1770.13 1432.73 C 1792.18 1446.12 1814.92 1458.36 1838.24 1469.39 C 1854.18 1476.76 1871.24 1483.27 1886.72 1490.88 C 1843.18 1525.51 1806.92 1547.95 1756 1569.13 L 1740.47 1573.76 L 1640.94 1510.11 C 1651.96 1504.65 1665.55 1499.79 1677.26 1494.19 C 1711.04 1478.33 1742.32 1457.62 1770.13 1432.73 z" fill="rgb(189,229,203)" transform="translate(0,0)"></path>
<path d="M 804.153 1828.9 L 805.675 1828.85 C 809.1 1830.83 819.663 1842.6 822.882 1846.13 C 843.634 1868.87 866.34 1890.62 886.881 1913.43 C 842.591 1928.25 801.148 1946.7 754.768 1961.71 C 746.516 1964.62 739.468 1967.24 730.838 1968.75 C 711.555 1935.2 693.091 1901.19 675.463 1866.74 C 721.858 1861.08 761.38 1846.27 804.153 1828.9 z" fill="rgb(189,229,203)" transform="translate(0,0)"></path>
<metadata><recraft-signature>{"signed_by": "recraft", "signature_b64": "2o5mgHfVbxMPYAmZxdPrI88wXeSJCtzbFXt1J/iJ98Bi607lhcC4O65YjRJ8p7W28V4vT5BulczKTAR+g9+tBw==", "signing_algo": "Ed25519", "generation_timestamp": 1773008983, "identifier": "33580a8f-5704-43c8-bed0-b56f0d8df1a6"}</recraft-signature></metadata></g>
</svg>
